{
  "accessors": [
    {
      "bufferView": 2,
      "componentType": 5126,
      "count": 7708,
      "max": [
        191.7479248046875,
        177.50450134277344,
        13.020572662353516
      ],
      "min": [
        -188.25213623046875,
        -202.49546813964844,
        0
      ],
      "type": "VEC3"
    },
    {
      "bufferView": 2,
      "byteOffset": 92496,
      "componentType": 5126,
      "count": 7708,
      "max": [
        1,
        1,
        1
      ],
      "min": [
        -1,
        -1,
        -1
      ],
      "type": "VEC3"
    },
    {
      "bufferView": 0,
      "componentType": 5125,
      "count": 7872,
      "max": [
        7707
      ],
      "min": [
        0
      ],
      "type": "SCALAR"
    },
    {
      "bufferView": 2,
      "byteOffset": 184992,
      "componentType": 5126,
      "count": 7424,
      "max": [
        273.04544067382812,
        275.59271240234375,
        107.86041259765625
      ],
      "min": [
        -232.19418334960938,
        -229.65180969238281,
        92.876007080078125
      ],
      "type": "VEC3"
    },
    {
      "bufferView": 2,
      "byteOffset": 274080,
      "componentType": 5126,
      "count": 7424,
      "max": [
        1,
        1,
        1
      ],
      "min": [
        -1,
        -1,
        -1
      ],
      "type": "VEC3"
    },
    {
      "bufferView": 0,
      "byteOffset": 31488,
      "componentType": 5125,
      "count": 44544,
      "max": [
        7423
      ],
      "min": [
        0
      ],
      "type": "SCALAR"
    },
    {
      "bufferView": 2,
      "byteOffset": 363168,
      "componentType": 5126,
      "count": 1362,
      "max": [
        18.749664306640625,
        296.3470458984375,
        23.004325866699219
      ],
      "min": [
        -444.47650146484375,
        -203.5,
        -1.239776611328125e-05
      ],
      "type": "VEC3"
    },
    {
      "bufferView": 2,
      "byteOffset": 379512,
      "componentType": 5126,
      "count": 1362,
      "max": [
        0.92245966196060181,
        1,
        1
      ],
      "min": [
        -0.98900324106216431,
        -1,
        -1
      ],
      "type": "VEC3"
    },
    {
      "bufferView": 0,
      "byteOffset": 209664,
      "componentType": 5125,
      "count": 1650,
      "max": [
        1361
      ],
      "min": [
        0
      ],
      "type": "SCALAR"
    },
    {
      "bufferView": 2,
      "byteOffset": 395856,
      "componentType": 5126,
      "count": 1362,
      "max": [
        18.749664306640625,
        296.3470458984375,
        23.004325866699219
      ],
      "min": [
        -444.47650146484375,
        -203.5,
        -1.239776611328125e-05
      ],
      "type": "VEC3"
    },
    {
      "bufferView": 2,
      "byteOffset": 412200,
      "componentType": 5126,
      "count": 1362,
      "max": [
        0.92245966196060181,
        1,
        1
      ],
      "min": [
        -0.98900324106216431,
        -1,
        -1
      ],
      "type": "VEC3"
    },
    {
      "bufferView": 0,
      "byteOffset": 216264,
      "componentType": 5125,
      "count": 1650,
      "max": [
        1361
      ],
      "min": [
        0
      ],
      "type": "SCALAR"
    },
    {
      "bufferView": 2,
      "byteOffset": 428544,
      "componentType": 5126,
      "count": 1362,
      "max": [
        18.749664306640625,
        296.3470458984375,
        23.004325866699219
      ],
      "min": [
        -444.47650146484375,
        -203.5,
        -1.239776611328125e-05
      ],
      "type": "VEC3"
    },
    {
      "bufferView": 2,
      "byteOffset": 444888,
      "componentType": 5126,
      "count": 1362,
      "max": [
        0.92245966196060181,
        1,
        1
      ],
      "min": [
        -0.98900324106216431,
        -1,
        -1
      ],
      "type": "VEC3"
    },
    {
      "bufferView": 0,
      "byteOffset": 222864,
      "componentType": 5125,
      "count": 1650,
      "max": [
        1361
      ],
      "min": [
        0
      ],
      "type": "SCALAR"
    },
    {
      "bufferView": 2,
      "byteOffset": 461232,
      "componentType": 5126,
      "count": 1362,
      "max": [
        18.749664306640625,
        296.3470458984375,
        23.004325866699219
      ],
      "min": [
        -444.47650146484375,
        -203.5,
        -1.239776611328125e-05
      ],
      "type": "VEC3"
    },
    {
      "bufferView": 2,
      "byteOffset": 477576,
      "componentType": 5126,
      "count": 1362,
      "max": [
        0.92245966196060181,
        1,
        1
      ],
      "min": [
        -0.98900324106216431,
        -1,
        -1
      ],
      "type": "VEC3"
    },
    {
      "bufferView": 0,
      "byteOffset": 229464,
      "componentType": 5125,
      "count": 1650,
      "max": [
        1361
      ],
      "min": [
        0
      ],
      "type": "SCALAR"
    },
    {
      "bufferView": 2,
      "byteOffset": 493920,
      "componentType": 5126,
      "count": 112,
      "max": [
        12.62347412109375,
        12.62347412109375,
        2
      ],
      "min": [
        -12.62347412109375,
        -12.62347412109375,
        0
      ],
      "type": "VEC3"
    },
    {
      "bufferView": 2,
      "byteOffset": 495264,
      "componentType": 5126,
      "count": 112,
      "max": [
        1,
        1,
        1
      ],
      "min": [
        -1,
        -1,
        -1
      ],
      "type": "VEC3"
    },
    {
      "bufferView": 0,
      "byteOffset": 236064,
      "componentType": 5125,
      "count": 324,
      "max": [
        111
      ],
      "min": [
        0
      ],
      "type": "SCALAR"
    },
    {
      "bufferView": 2,
      "byteOffset": 496608,
      "componentType": 5126,
      "count": 112,
      "max": [
        12.62347412109375,
        12.62347412109375,
        2
      ],
      "min": [
        -12.62347412109375,
        -12.62347412109375,
        0
      ],
      "type": "VEC3"
    },
    {
      "bufferView": 2,
      "byteOffset": 497952,
      "componentType": 5126,
      "count": 112,
      "max": [
        1,
        1,
        1
      ],
      "min": [
        -1,
        -1,
        -1
      ],
      "type": "VEC3"
    },
    {
      "bufferView": 0,
      "byteOffset": 237360,
      "componentType": 5125,
      "count": 324,
      "max": [
        111
      ],
      "min": [
        0
      ],
      "type": "SCALAR"
    },
    {
      "bufferView": 2,
      "byteOffset": 499296,
      "componentType": 5126,
      "count": 112,
      "max": [
        12.62347412109375,
        12.62347412109375,
        2
      ],
      "min": [
        -12.62347412109375,
        -12.62347412109375,
        0
      ],
      "type": "VEC3"
    },
    {
      "bufferView": 2,
      "byteOffset": 500640,
      "componentType": 5126,
      "count": 112,
      "max": [
        1,
        1,
        1
      ],
      "min": [
        -1,
        -1,
        -1
      ],
      "type": "VEC3"
    },
    {
      "bufferView": 0,
      "byteOffset": 238656,
      "componentType": 5125,
      "count": 324,
      "max": [
        111
      ],
      "min": [
        0
      ],
      "type": "SCALAR"
    },
    {
      "bufferView": 2,
      "byteOffset": 501984,
      "componentType": 5126,
      "count": 112,
      "max": [
        12.62347412109375,
        12.62347412109375,
        2
      ],
      "min": [
        -12.62347412109375,
        -12.62347412109375,
        0
      ],
      "type": "VEC3"
    },
    {
      "bufferView": 2,
      "byteOffset": 503328,
      "componentType": 5126,
      "count": 112,
      "max": [
        1,
        1,
        1
      ],
      "min": [
        -1,
        -1,
        -1
      ],
      "type": "VEC3"
    },
    {
      "bufferView": 0,
      "byteOffset": 239952,
      "componentType": 5125,
      "count": 324,
      "max": [
        111
      ],
      "min": [
        0
      ],
      "type": "SCALAR"
    },
    {
      "bufferView": 2,
      "byteOffset": 504672,
      "componentType": 5126,
      "count": 702,
      "max": [
        50.93841552734375,
        248.99748229980469,
        113.09418487548828
      ],
      "min": [
        -457.30181884765625,
        -256.41290283203125,
        93.09417724609375
      ],
      "type": "VEC3"
    },
    {
      "bufferView": 2,
      "byteOffset": 513096,
      "componentType": 5126,
      "count": 702,
      "max": [
        0.99928885698318481,
        0.99928873777389526,
        0.99888181686401367
      ],
      "min": [
        -0.99928861856460571,
        -0.99928861856460571,
        -0.99928939342498779
      ],
      "type": "VEC3"
    },
    {
      "bufferView": 3,
      "componentType": 5126,
      "count": 702,
      "max": [
        0.99998700618743896,
        0.99998742341995239,
        0.94497799873352051,
        1
      ],
      "min": [
        -0.99998742341995239,
        -0.99998700618743896,
        -0.91710913181304932,
        1
      ],
      "type": "VEC4"
    },
    {
      "bufferView": 1,
      "componentType": 5126,
      "count": 702,
      "max": [
        0.99915164709091187,
        0.99895000457763672
      ],
      "min": [
        0.0011352300643920898,
        0.0010503232479095459
      ],
      "type": "VEC2"
    },
    {
      "bufferView": 0,
      "byteOffset": 241248,
      "componentType": 5125,
      "count": 3492,
      "max": [
        701
      ],
      "min": [
        0
      ],
      "type": "SCALAR"
    }
  ],
  "asset": {
    "generator": "Sketchfab (OSG glTF plugin)",
    "version": "2.0"
  },
  "bufferViews": [
    {
      "buffer": 0,
      "byteLength": 255216,
      "byteOffset": 0,
      "name": "floatBufferViews",
      "target": 34963
    },
    {
      "buffer": 0,
      "byteLength": 5616,
      "byteOffset": 255216,
      "byteStride": 8,
      "name": "floatBufferViews",
      "target": 34962
    },
    {
      "buffer": 0,
      "byteLength": 521520,
      "byteOffset": 260832,
      "byteStride": 12,
      "name": "floatBufferViews",
      "target": 34962
    },
    {
      "buffer": 0,
      "byteLength": 11232,
      "byteOffset": 782352,
      "byteStride": 16,
      "name": "floatBufferViews",
      "target": 34962
    }
  ],
  "buffers": [
    {
      "byteLength": 793584,
      "uri": "scene.bin"
    }
  ],
  "images": [
    {
      "uri": "textures/04%20-%20Default_baseColor.jpg"
    }
  ],
  "materials": [
    {
      "doubleSided": true,
      "emissiveFactor": [
        0,
        0,
        0
      ],
      "name": "03 - Default",
      "pbrMetallicRoughness": {
        "baseColorFactor": [
          0.17172344719999999,
          0.11935004590000001,
          0.084350532300000003,
          1
        ],
        "metallicFactor": 1,
        "roughnessFactor": 0.40000000000000002
      }
    },
    {
      "doubleSided": true,
      "emissiveFactor": [
        0,
        0,
        0
      ],
      "name": "Chrome Matte",
      "pbrMetallicRoughness": {
        "baseColorFactor": [
          1,
          1,
          1,
          1
        ],
        "metallicFactor": 0,
        "roughnessFactor": 0.59999999999999998
      }
    },
    {
      "doubleSided": true,
      "emissiveFactor": [
        0,
        0,
        0
      ],
      "name": "04 - Default",
      "pbrMetallicRoughness": {
        "baseColorFactor": [
          1,
          1,
          1,
          1
        ],
        "baseColorTexture": {
          "index": 0,
          "texCoord": 0
        },
        "metallicFactor": 0,
        "roughnessFactor": 0.40000000000000002
      }
    }
  ],
  "meshes": [
    {
      "name": "Rectangle008_03 - Default_0",
      "primitives": [
        {
          "attributes": {
            "NORMAL": 1,
            "POSITION": 0
          },
          "indices": 2,
          "material": 0,
          "mode": 4
        }
      ]
    },
    {
      "name": "Rectangle009_03 - Default_0",
      "primitives": [
        {
          "attributes": {
            "NORMAL": 4,
            "POSITION": 3
          },
          "indices": 5,
          "material": 0,
          "mode": 4
        }
      ]
    },
    {
      "name": "Line008_03 - Default_0",
      "primitives": [
        {
          "attributes": {
            "NORMAL": 7,
            "POSITION": 6
          },
          "indices": 8,
          "material": 0,
          "mode": 4
        }
      ]
    },
    {
      "name": "Line009_03 - Default_0",
      "primitives": [
        {
          "attributes": {
            "NORMAL": 10,
            "POSITION": 9
          },
          "indices": 11,
          "material": 0,
          "mode": 4
        }
      ]
    },
    {
      "name": "Line010_03 - Default_0",
      "primitives": [
        {
          "attributes": {
            "NORMAL": 13,
            "POSITION": 12
          },
          "indices": 14,
          "material": 0,
          "mode": 4
        }
      ]
    },
    {
      "name": "Line011_03 - Default_0",
      "primitives": [
        {
          "attributes": {
            "NORMAL": 16,
            "POSITION": 15
          },
          "indices": 17,
          "material": 0,
          "mode": 4
        }
      ]
    },
    {
      "name": "Circle009_Chrome Matte_0",
      "primitives": [
        {
          "attributes": {
            "NORMAL": 19,
            "POSITION": 18
          },
          "indices": 20,
          "material": 1,
          "mode": 4
        }
      ]
    },
    {
      "name": "Circle010_Chrome Matte_0",
      "primitives": [
        {
          "attributes": {
            "NORMAL": 22,
            "POSITION": 21
          },
          "indices": 23,
          "material": 1,
          "mode": 4
        }
      ]
    },
    {
      "name": "Circle011_Chrome Matte_0",
      "primitives": [
        {
          "attributes": {
            "NORMAL": 25,
            "POSITION": 24
          },
          "indices": 26,
          "material": 1,
          "mode": 4
        }
      ]
    },
    {
      "name": "Circle012_Chrome Matte_0",
      "primitives": [
        {
          "attributes": {
            "NORMAL": 28,
            "POSITION": 27
          },
          "indices": 29,
          "material": 1,
          "mode": 4
        }
      ]
    },
    {
      "name": "Rectangle010_04 - Default_0",
      "primitives": [
        {
          "attributes": {
            "NORMAL": 31,
            "POSITION": 30,
            "TANGENT": 32,
            "TEXCOORD_0": 33
          },
          "indices": 34,
          "material": 2,
          "mode": 4
        }
      ]
    }
  ],
  "nodes": [
    {
      "children": [
        1
      ],
      "name": "RootNode (gltf orientation matrix)",
      "rotation": [
        -0.70710678118654746,
        -0,
        -0,
        0.70710678118654757
      ]
    },
    {
      "children": [
        2
      ],
      "name": "RootNode (model correction matrix)"
    },
    {
      "children": [
        3
      ],
      "matrix": [
        1,
        0,
        0,
        0,
        0,
        0,
        1,
        0,
        0,
        -1,
        0,
        0,
        0,
        0,
        0,
        1
      ],
      "name": "c6292cca5f2b4dbf8e4c298112b023a1.fbx"
    },
    {
      "children": [
        4
      ],
      "name": "RootNode"
    },
    {
      "children": [
        5,
        8,
        11,
        14,
        17,
        20,
        23,
        26,
        29,
        32,
        35
      ],
      "matrix": [
        0.93667219931191648,
        0,
        -0.35020735434336253,
        0,
        -0.35020735434336253,
        -2.2204460492503131e-16,
        -0.93667219931191659,
        0,
        0,
        1.0000000000000002,
        -2.2204460492503131e-16,
        0,
        247.6580810546875,
        276.44882202148438,
        316.1063232421875,
        1
      ],
      "name": "100658"
    },
    {
      "children": [
        6
      ],
      "matrix": [
        0.70710681098886852,
        0.7071067513842253,
        1.2325951644078315e-32,
        0,
        -0.7071067513842253,
        0.70710681098886852,
        3.0814879110195774e-33,
        0,
        -6.5368234532564017e-33,
        -1.0894704714625071e-32,
        1,
        0,
        -8.6330032348632812,
        7.512664794921875,
        -275.08721923828125,
        1
      ],
      "name": "Rectangle008"
    },
    {
      "children": [
        7
      ],
      "name": "Geode"
    },
    {
      "mesh": 0,
      "name": "Rectangle008_03 - Default_0"
    },
    {
      "children": [
        9
      ],
      "matrix": [
        -1.4901161171643196e-07,
        -0.99999999999998879,
        -1.2325951644078309e-32,
        0,
        0.99999999999998879,
        -1.4901161171643196e-07,
        6.1629758220391547e-33,
        0,
        -6.1629776587490081e-33,
        -1.2325950725723214e-32,
        1,
        0,
        -21.456550598144531,
        20.3363037109375,
        143.74102783203125,
        1
      ],
      "name": "Rectangle009"
    },
    {
      "children": [
        10
      ],
      "name": "Geode"
    },
    {
      "mesh": 1,
      "name": "Rectangle009_03 - Default_0"
    },
    {
      "children": [
        12
      ],
      "matrix": [
        1,
        0,
        6.1629758220391575e-33,
        0,
        -6.1629758220390747e-33,
        -1.6292068472090193e-07,
        0.99999999999998679,
        0,
        1.0040762415292103e-39,
        -0.99999999999998679,
        -1.6292068472090193e-07,
        0,
        214.29444885253906,
        -229.61083984375,
        -58.58721923828125,
        1
      ],
      "name": "Line008"
    },
    {
      "children": [
        13
      ],
      "name": "Geode"
    },
    {
      "mesh": 2,
      "name": "Line008_03 - Default_0"
    },
    {
      "children": [
        15
      ],
      "matrix": [
        0.999999999999996,
        -8.940696728555049e-08,
        -6.6174449004242214e-24,
        -0,
        1.0661674315226966e-15,
        1.192488086054766e-08,
        0.99999999999999989,
        -0,
        8.940696728555049e-08,
        0.99999999999999589,
        -1.192488086054766e-08,
        -0,
        214.29444885253906,
        229.43112182617188,
        -58.58721923828125,
        1
      ],
      "name": "Line009"
    },
    {
      "children": [
        16
      ],
      "name": "Geode"
    },
    {
      "mesh": 3,
      "name": "Line009_03 - Default_0"
    },
    {
      "children": [
        18
      ],
      "matrix": [
        -0,
        -0.99999999999999811,
        5.9604644664368323e-08,
        -0,
        1.1924880749525357e-08,
        5.9604644775390625e-08,
        0.999999999999998,
        -0,
        0.99999999999999989,
        -7.2164496600635175e-16,
        -1.1924880749525357e-08,
        -0,
        230.95698547363281,
        -212.95330810546875,
        -58.58721923828125,
        1
      ],
      "name": "Line010"
    },
    {
      "children": [
        19
      ],
      "name": "Geode"
    },
    {
      "mesh": 4,
      "name": "Line010_03 - Default_0"
    },
    {
      "children": [
        21
      ],
      "matrix": [
        -1.4901161193847656e-07,
        -0.9999999999999889,
        -1.1102230246251565e-16,
        0,
        -2.8212997449372779e-07,
        4.1966430330830917e-14,
        0.99999999999996014,
        0,
        -0.99999999999994904,
        1.4901161182745426e-07,
        -2.8212997449372779e-07,
        0,
        -228.07940673828125,
        -212.95330810546875,
        -58.58721923828125,
        1
      ],
      "name": "Line011"
    },
    {
      "children": [
        22
      ],
      "name": "Geode"
    },
    {
      "mesh": 5,
      "name": "Line011_03 - Default_0"
    },
    {
      "children": [
        24
      ],
      "matrix": [
        1,
        0,
        6.1629758220391561e-33,
        0,
        -7.5964541966078424e-65,
        1,
        1.2325951644078312e-32,
        0,
        -6.1629758220391561e-33,
        -1.2325951644078312e-32,
        1,
        0,
        -234.27825927734375,
        235.66201782226562,
        251.58718872070312,
        1
      ],
      "name": "Circle009"
    },
    {
      "children": [
        25
      ],
      "name": "Geode"
    },
    {
      "mesh": 6,
      "name": "Circle009_Chrome Matte_0"
    },
    {
      "children": [
        27
      ],
      "matrix": [
        1,
        0,
        6.1629758220391561e-33,
        0,
        -7.5964541966078424e-65,
        1,
        1.2325951644078312e-32,
        0,
        -6.1629758220391561e-33,
        -1.2325951644078312e-32,
        1,
        0,
        -234.27825927734375,
        -236.3843994140625,
        251.58718872070312,
        1
      ],
      "name": "Circle010"
    },
    {
      "children": [
        28
      ],
      "name": "Geode"
    },
    {
      "mesh": 7,
      "name": "Circle010_Chrome Matte_0"
    },
    {
      "children": [
        30
      ],
      "matrix": [
        1,
        0,
        6.1629758220391561e-33,
        0,
        -7.5964541966078424e-65,
        1,
        1.2325951644078312e-32,
        0,
        -6.1629758220391561e-33,
        -1.2325951644078312e-32,
        1,
        0,
        236.55784606933594,
        -236.3843994140625,
        251.58718872070312,
        1
      ],
      "name": "Circle011"
    },
    {
      "children": [
        31
      ],
      "name": "Geode"
    },
    {
      "mesh": 8,
      "name": "Circle011_Chrome Matte_0"
    },
    {
      "children": [
        33
      ],
      "matrix": [
        1,
        0,
        6.1629758220391561e-33,
        0,
        -7.5964541966078424e-65,
        1,
        1.2325951644078312e-32,
        0,
        -6.1629758220391561e-33,
        -1.2325951644078312e-32,
        1,
        0,
        236.55784606933594,
        235.66204833984375,
        251.58718872070312,
        1
      ],
      "name": "Circle012"
    },
    {
      "children": [
        34
      ],
      "name": "Geode"
    },
    {
      "mesh": 9,
      "name": "Circle012_Chrome Matte_0"
    },
    {
      "children": [
        36
      ],
      "matrix": [
        1,
        0,
        6.1629758220391561e-33,
        0,
        -7.5964541966078424e-65,
        1,
        1.2325951644078312e-32,
        0,
        -6.1629758220391561e-33,
        -1.2325951644078312e-32,
        1,
        0,
        204.69560241699219,
        3.61834716796875,
        160.49298095703125,
        1
      ],
      "name": "Rectangle010"
    },
    {
      "children": [
        37
      ],
      "name": "Geode"
    },
    {
      "mesh": 10,
      "name": "Rectangle010_04 - Default_0"
    }
  ],
  "samplers": [
    {
      "magFilter": 9729,
      "minFilter": 9987,
      "wrapS": 10497,
      "wrapT": 10497
    }
  ],
  "scene": 0,
  "scenes": [
    {
      "name": "OSG_Scene",
      "nodes": [
        0
      ]
    }
  ],
  "textures": [
    {
      "sampler": 0,
      "source": 0
    }
  ]
}

