{
  "accessors": [
    {
      "bufferView": 1,
      "componentType": 5126,
      "count": 102,
      "max": [
        1.9343388080596924,
        0.5,
        0.5
      ],
      "min": [
        -0.5,
        -13.598393440246582,
        -0.5
      ],
      "type": "VEC3"
    },
    {
      "bufferView": 1,
      "byteOffset": 1224,
      "componentType": 5126,
      "count": 102,
      "max": [
        1,
        1,
        1
      ],
      "min": [
        -1,
        -1,
        -1
      ],
      "type": "VEC3"
    },
    {
      "bufferView": 2,
      "componentType": 5126,
      "count": 102,
      "max": [
        1,
        0.2831915020942688,
        1,
        1
      ],
      "min": [
        0,
        -0.25451263785362244,
        -1,
        1
      ],
      "type": "VEC4"
    },
    {
      "bufferView": 0,
      "componentType": 5125,
      "count": 192,
      "max": [
        101
      ],
      "min": [
        0
      ],
      "type": "SCALAR"
    },
    {
      "bufferView": 1,
      "byteOffset": 2448,
      "componentType": 5126,
      "count": 168,
      "max": [
        1,
        8.2336082458496094,
        1.0000004768371582
      ],
      "min": [
        -1.0000002384185791,
        0.024086356163024902,
        -1.0000001192092896
      ],
      "type": "VEC3"
    },
    {
      "bufferView": 1,
      "byteOffset": 4464,
      "componentType": 5126,
      "count": 168,
      "max": [
        1,
        1,
        1
      ],
      "min": [
        -1,
        -1,
        -1
      ],
      "type": "VEC3"
    },
    {
      "bufferView": 2,
      "byteOffset": 1632,
      "componentType": 5126,
      "count": 168,
      "max": [
        1,
        1.0282021776220063e-06,
        1,
        1
      ],
      "min": [
        -1,
        -8.509765621056431e-07,
        -1,
        1
      ],
      "type": "VEC4"
    },
    {
      "bufferView": 0,
      "byteOffset": 768,
      "componentType": 5125,
      "count": 480,
      "max": [
        167
      ],
      "min": [
        0
      ],
      "type": "SCALAR"
    },
    {
      "bufferView": 1,
      "byteOffset": 6480,
      "componentType": 5126,
      "count": 76,
      "max": [
        0.50368791818618774,
        0.5,
        0.50000011920928955
      ],
      "min": [
        -0.49999979138374329,
        -1.6098145246505737,
        -0.5
      ],
      "type": "VEC3"
    },
    {
      "bufferView": 1,
      "byteOffset": 7392,
      "componentType": 5126,
      "count": 76,
      "max": [
        1,
        1,
        1
      ],
      "min": [
        -1,
        -1,
        -1
      ],
      "type": "VEC3"
    },
    {
      "bufferView": 2,
      "byteOffset": 4320,
      "componentType": 5126,
      "count": 76,
      "max": [
        1,
        0,
        1,
        1
      ],
      "min": [
        0,
        0,
        -1,
        1
      ],
      "type": "VEC4"
    },
    {
      "bufferView": 0,
      "byteOffset": 2688,
      "componentType": 5125,
      "count": 150,
      "max": [
        75
      ],
      "min": [
        0
      ],
      "type": "SCALAR"
    },
    {
      "bufferView": 1,
      "byteOffset": 8304,
      "componentType": 5126,
      "count": 81,
      "max": [
        2.4555087089538574,
        3.3032758235931396,
        6.9984054565429688
      ],
      "min": [
        2.0307140350341797,
        3.0585877895355225,
        5.3376426696777344
      ],
      "type": "VEC3"
    },
    {
      "bufferView": 1,
      "byteOffset": 9276,
      "componentType": 5126,
      "count": 81,
      "max": [
        0.99836629629135132,
        1,
        1
      ],
      "min": [
        -1,
        -1,
        -1
      ],
      "type": "VEC3"
    },
    {
      "bufferView": 2,
      "byteOffset": 5536,
      "componentType": 5126,
      "count": 81,
      "max": [
        1,
        0.0016364353941753507,
        1,
        1
      ],
      "min": [
        -0.040773175656795502,
        -0.001636429107747972,
        -1,
        1
      ],
      "type": "VEC4"
    },
    {
      "bufferView": 0,
      "byteOffset": 3288,
      "componentType": 5125,
      "count": 180,
      "max": [
        80
      ],
      "min": [
        0
      ],
      "type": "SCALAR"
    },
    {
      "bufferView": 1,
      "byteOffset": 10248,
      "componentType": 5126,
      "count": 48,
      "max": [
        2.0849828720092773,
        3.5943763256072998,
        7.8397445678710938
      ],
      "min": [
        -1.8935112953186035,
        2.7335710525512695,
        4.4553127288818359
      ],
      "type": "VEC3"
    },
    {
      "bufferView": 1,
      "byteOffset": 10824,
      "componentType": 5126,
      "count": 48,
      "max": [
        1,
        1,
        1
      ],
      "min": [
        -1,
        -1,
        -1
      ],
      "type": "VEC3"
    },
    {
      "bufferView": 2,
      "byteOffset": 6832,
      "componentType": 5126,
      "count": 48,
      "max": [
        0,
        0,
        0,
        1
      ],
      "min": [
        0,
        0,
        -1,
        -1
      ],
      "type": "VEC4"
    },
    {
      "bufferView": 0,
      "byteOffset": 4008,
      "componentType": 5125,
      "count": 84,
      "max": [
        47
      ],
      "min": [
        0
      ],
      "type": "SCALAR"
    },
    {
      "bufferView": 1,
      "byteOffset": 11400,
      "componentType": 5126,
      "count": 81,
      "max": [
        2.4555087089538574,
        2.2461872100830078,
        6.9984054565429688
      ],
      "min": [
        2.0307140350341797,
        2.0014991760253906,
        5.3376426696777344
      ],
      "type": "VEC3"
    },
    {
      "bufferView": 1,
      "byteOffset": 12372,
      "componentType": 5126,
      "count": 81,
      "max": [
        0.99836629629135132,
        1,
        1
      ],
      "min": [
        -1,
        -1,
        -1
      ],
      "type": "VEC3"
    },
    {
      "bufferView": 2,
      "byteOffset": 7600,
      "componentType": 5126,
      "count": 81,
      "max": [
        1,
        0.0016364313196390867,
        1,
        1
      ],
      "min": [
        -0.040773123502731323,
        -0.0016364313196390867,
        -1,
        1
      ],
      "type": "VEC4"
    },
    {
      "bufferView": 0,
      "byteOffset": 4344,
      "componentType": 5125,
      "count": 180,
      "max": [
        80
      ],
      "min": [
        0
      ],
      "type": "SCALAR"
    },
    {
      "bufferView": 1,
      "byteOffset": 13344,
      "componentType": 5126,
      "count": 48,
      "max": [
        2.0849828720092773,
        2.537287712097168,
        7.8397445678710938
      ],
      "min": [
        -1.8935112953186035,
        1.6764823198318481,
        4.4553127288818359
      ],
      "type": "VEC3"
    },
    {
      "bufferView": 1,
      "byteOffset": 13920,
      "componentType": 5126,
      "count": 48,
      "max": [
        1,
        1,
        1
      ],
      "min": [
        -1,
        -1,
        -1
      ],
      "type": "VEC3"
    },
    {
      "bufferView": 2,
      "byteOffset": 8896,
      "componentType": 5126,
      "count": 48,
      "max": [
        0,
        0,
        0,
        1
      ],
      "min": [
        0,
        0,
        -1,
        -1
      ],
      "type": "VEC4"
    },
    {
      "bufferView": 0,
      "byteOffset": 5064,
      "componentType": 5125,
      "count": 84,
      "max": [
        47
      ],
      "min": [
        0
      ],
      "type": "SCALAR"
    }
  ],
  "asset": {
    "generator": "Sketchfab (OSG glTF plugin)",
    "version": "2.0"
  },
  "bufferViews": [
    {
      "buffer": 0,
      "byteLength": 5400,
      "byteOffset": 0,
      "name": "floatBufferViews",
      "target": 34963
    },
    {
      "buffer": 0,
      "byteLength": 14496,
      "byteOffset": 5400,
      "byteStride": 12,
      "name": "floatBufferViews",
      "target": 34962
    },
    {
      "buffer": 0,
      "byteLength": 9664,
      "byteOffset": 19896,
      "byteStride": 16,
      "name": "floatBufferViews",
      "target": 34962
    }
  ],
  "buffers": [
    {
      "byteLength": 29560,
      "uri": "scene.bin"
    }
  ],
  "materials": [
    {
      "doubleSided": true,
      "emissiveFactor": [
        0,
        0,
        0
      ],
      "name": "lambert1",
      "pbrMetallicRoughness": {
        "baseColorFactor": [
          0.5,
          0.5,
          0.5,
          1
        ],
        "metallicFactor": 0,
        "roughnessFactor": 0.59999999999999998
      }
    }
  ],
  "meshes": [
    {
      "name": "pCube1_lambert1_0",
      "primitives": [
        {
          "attributes": {
            "NORMAL": 1,
            "POSITION": 0,
            "TANGENT": 2
          },
          "indices": 3,
          "material": 0,
          "mode": 4
        }
      ]
    },
    {
      "name": "pPipe1_lambert1_0",
      "primitives": [
        {
          "attributes": {
            "NORMAL": 5,
            "POSITION": 4,
            "TANGENT": 6
          },
          "indices": 7,
          "material": 0,
          "mode": 4
        }
      ]
    },
    {
      "name": "polySurface1_lambert1_0",
      "primitives": [
        {
          "attributes": {
            "NORMAL": 9,
            "POSITION": 8,
            "TANGENT": 10
          },
          "indices": 11,
          "material": 0,
          "mode": 4
        }
      ]
    },
    {
      "name": "polySurface3_lambert1_0",
      "primitives": [
        {
          "attributes": {
            "NORMAL": 13,
            "POSITION": 12,
            "TANGENT": 14
          },
          "indices": 15,
          "material": 0,
          "mode": 4
        }
      ]
    },
    {
      "name": "polySurface4_lambert1_0",
      "primitives": [
        {
          "attributes": {
            "NORMAL": 17,
            "POSITION": 16,
            "TANGENT": 18
          },
          "indices": 19,
          "material": 0,
          "mode": 4
        }
      ]
    },
    {
      "name": "polySurface5_lambert1_0",
      "primitives": [
        {
          "attributes": {
            "NORMAL": 21,
            "POSITION": 20,
            "TANGENT": 22
          },
          "indices": 23,
          "material": 0,
          "mode": 4
        }
      ]
    },
    {
      "name": "polySurface6_lambert1_0",
      "primitives": [
        {
          "attributes": {
            "NORMAL": 25,
            "POSITION": 24,
            "TANGENT": 26
          },
          "indices": 27,
          "material": 0,
          "mode": 4
        }
      ]
    }
  ],
  "nodes": [
    {
      "children": [
        1
      ],
      "name": "RootNode (gltf orientation matrix)",
      "rotation": [
        -0.70710678118654746,
        -0,
        -0,
        0.70710678118654757
      ]
    },
    {
      "children": [
        2
      ],
      "name": "RootNode (model correction matrix)"
    },
    {
      "children": [
        3
      ],
      "matrix": [
        1,
        0,
        0,
        0,
        0,
        0,
        1,
        0,
        0,
        -1,
        0,
        0,
        0,
        0,
        0,
        1
      ],
      "name": "c01977ddc60b4c9e80fc3574849c4d3c.fbx"
    },
    {
      "children": [
        4,
        7,
        10,
        14
      ],
      "name": "RootNode"
    },
    {
      "children": [
        5
      ],
      "matrix": [
        4.1722221374511719,
        0,
        0,
        0,
        0,
        0.28068354725837708,
        0,
        0,
        0,
        0,
        16.165969848632812,
        0,
        0,
        3.8281502723693848,
        0,
        1
      ],
      "name": "pCube1"
    },
    {
      "children": [
        6
      ],
      "name": "Geode"
    },
    {
      "mesh": 0,
      "name": "pCube1_lambert1_0"
    },
    {
      "children": [
        8
      ],
      "matrix": [
        0.31999999284744263,
        0,
        0,
        0,
        0,
        0.45771342515945435,
        0,
        0,
        0,
        0,
        0.31999999284744263,
        0,
        -1.2964568138122559,
        0,
        -7.2585229873657227,
        1
      ],
      "name": "pPipe1"
    },
    {
      "children": [
        9
      ],
      "name": "Geode"
    },
    {
      "mesh": 1,
      "name": "pPipe1_lambert1_0"
    },
    {
      "children": [
        11
      ],
      "matrix": [
        4.1586194038391113,
        0,
        0,
        0,
        0,
        1,
        0,
        0,
        0,
        0,
        3.5844321250915527,
        0,
        0,
        3.1798017024993896,
        6.1190938949584961,
        1
      ],
      "name": "pCube2"
    },
    {
      "children": [
        12
      ],
      "matrix": [
        1,
        0,
        0,
        0,
        0,
        1,
        0,
        0,
        0,
        0,
        1,
        0,
        -0.0019726967439055443,
        0.014574352651834488,
        0.007932618260383606,
        1
      ],
      "name": "polySurface1"
    },
    {
      "children": [
        13
      ],
      "name": "Geode"
    },
    {
      "mesh": 2,
      "name": "polySurface1_lambert1_0"
    },
    {
      "children": [
        15,
        18,
        21,
        24
      ],
      "name": "pCube4"
    },
    {
      "children": [
        16
      ],
      "name": "polySurface3"
    },
    {
      "children": [
        17
      ],
      "name": "Geode"
    },
    {
      "mesh": 3,
      "name": "polySurface3_lambert1_0"
    },
    {
      "children": [
        19
      ],
      "name": "polySurface4"
    },
    {
      "children": [
        20
      ],
      "name": "Geode"
    },
    {
      "mesh": 4,
      "name": "polySurface4_lambert1_0"
    },
    {
      "children": [
        22
      ],
      "name": "polySurface5"
    },
    {
      "children": [
        23
      ],
      "name": "Geode"
    },
    {
      "mesh": 5,
      "name": "polySurface5_lambert1_0"
    },
    {
      "children": [
        25
      ],
      "name": "polySurface6"
    },
    {
      "children": [
        26
      ],
      "name": "Geode"
    },
    {
      "mesh": 6,
      "name": "polySurface6_lambert1_0"
    }
  ],
  "scene": 0,
  "scenes": [
    {
      "name": "OSG_Scene",
      "nodes": [
        0
      ]
    }
  ]
}

